<?xml version="1.0" encoding="UTF-8"?>
<svg xmlns="http://www.w3.org/2000/svg" xmlns:xlink="http://www.w3.org/1999/xlink" width="79px" height="79px" viewBox="0 0 79 79" version="1.1">
<defs>
<linearGradient id="linear0" gradientUnits="userSpaceOnUse" x1="-2901.952" y1="923.573" x2="-2061.249" y2="1420.331" gradientTransform="matrix(0.0037525,0,0,-0.0037525,45.883287,50.285392)">
<stop offset="0" style="stop-color:rgb(56.470588%,61.176471%,66.27451%);stop-opacity:1;"/>
<stop offset="1" style="stop-color:rgb(92.941176%,92.941176%,93.333333%);stop-opacity:1;"/>
</linearGradient>
<linearGradient id="linear1" gradientUnits="userSpaceOnUse" x1="-2882.7" y1="10288.81" x2="-2206.249" y2="10288.81" gradientTransform="matrix(0.0037525,0,0,-0.0037525,45.883287,50.285392)">
<stop offset="0" style="stop-color:rgb(57.647059%,62.352941%,67.058824%);stop-opacity:1;"/>
<stop offset="1" style="stop-color:rgb(86.27451%,87.058824%,88.235294%);stop-opacity:1;"/>
</linearGradient>
<radialGradient id="radial0" gradientUnits="userSpaceOnUse" cx="-14217.448" cy="7277.705" fx="-14217.448" fy="7277.705" r="898.12" gradientTransform="matrix(-0.0036035,-0.000541285,-0.00109473,0.00720699,4.609253,-36.827653)">
<stop offset="0" style="stop-color:rgb(93.333333%,20.784314%,17.254902%);stop-opacity:1;"/>
<stop offset="1" style="stop-color:rgb(66.27451%,11.372549%,13.333333%);stop-opacity:1;"/>
</radialGradient>
</defs>
<g id="surface1">
<path style=" stroke:none;fill-rule:nonzero;fill:url(#linear0);" d="M 53.558594 27.902344 L 44.835938 30.75 L 37.246094 34.101562 L 35.121094 34.660156 C 34.582031 35.175781 34.015625 35.695312 33.402344 36.222656 C 32.726562 36.804688 32.101562 37.332031 31.621094 37.714844 C 31.085938 38.136719 30.292969 38.929688 29.890625 39.429688 C 29.292969 40.179688 28.816406 40.980469 28.613281 41.59375 C 28.25 42.699219 28.429688 43.820312 29.128906 44.855469 C 30.023438 46.175781 31.8125 47.519531 33.894531 48.4375 C 34.957031 48.90625 36.746094 49.503906 38.089844 49.839844 C 40.324219 50.410156 44.652344 51.023438 47.03125 51.113281 C 47.511719 51.132812 48.160156 51.132812 48.183594 51.113281 C 48.238281 51.082031 48.605469 50.375 49.035156 49.5 C 50.5 46.511719 51.554688 43.707031 52.128906 41.316406 C 52.472656 39.863281 52.742188 37.933594 52.921875 35.644531 C 52.964844 35.003906 52.984375 32.859375 52.945312 32.136719 C 52.886719 30.949219 52.78125 29.984375 52.617188 29.042969 C 52.589844 28.90625 52.582031 28.777344 52.597656 28.773438 C 52.625 28.753906 52.703125 28.726562 53.777344 28.417969 Z M 51.570312 29.070312 C 51.648438 29.070312 51.859375 31.09375 51.910156 32.371094 C 51.925781 32.644531 51.917969 32.820312 51.90625 32.820312 C 51.851562 32.820312 50.789062 32.195312 50.03125 31.71875 C 49.371094 31.304688 48.121094 30.472656 47.921875 30.316406 C 47.855469 30.269531 47.863281 30.261719 48.402344 30.078125 C 49.320312 29.769531 51.496094 29.070312 51.570312 29.070312 Z M 47.125 30.53125 C 47.183594 30.53125 47.335938 30.617188 47.699219 30.84375 C 49.054688 31.695312 50.902344 32.722656 51.695312 33.066406 C 51.9375 33.171875 51.964844 33.132812 51.402344 33.515625 C 50.203125 34.332031 48.707031 35.136719 46.871094 35.945312 C 46.550781 36.09375 46.28125 36.203125 46.273438 36.203125 C 46.261719 36.203125 46.300781 36.039062 46.351562 35.839844 C 46.792969 34.199219 47.042969 32.539062 47.058594 31.207031 C 47.0625 30.546875 47.0625 30.546875 47.125 30.527344 C 47.109375 30.53125 47.117188 30.53125 47.125 30.53125 Z M 46.207031 30.882812 C 46.246094 30.921875 46.21875 32.398438 46.167969 32.800781 C 46.046875 33.765625 45.863281 34.660156 45.5625 35.671875 C 45.488281 35.914062 45.421875 36.117188 45.410156 36.132812 C 45.382812 36.164062 44.480469 35.28125 44.183594 34.9375 C 43.667969 34.34375 43.265625 33.75 42.96875 33.171875 C 42.816406 32.875 42.582031 32.292969 42.601562 32.273438 C 42.707031 32.203125 46.179688 30.855469 46.207031 30.882812 Z M 41.894531 32.578125 C 41.902344 32.578125 41.90625 32.578125 41.914062 32.582031 C 41.925781 32.597656 41.972656 32.703125 42.011719 32.820312 C 42.222656 33.394531 42.699219 34.238281 43.109375 34.78125 C 43.554688 35.375 44.144531 36.007812 44.632812 36.421875 C 44.789062 36.554688 44.933594 36.679688 44.953125 36.699219 C 44.992188 36.738281 45.007812 36.730469 43.933594 37.140625 C 42.6875 37.617188 41.328125 38.089844 39.769531 38.589844 C 39.398438 38.710938 39.027344 38.832031 38.65625 38.953125 C 38.597656 38.972656 38.617188 38.941406 38.789062 38.671875 C 39.558594 37.464844 40.734375 35.097656 41.394531 33.421875 C 41.503906 33.132812 41.617188 32.839844 41.636719 32.773438 C 41.664062 32.683594 41.695312 32.648438 41.78125 32.605469 C 41.828125 32.589844 41.875 32.578125 41.894531 32.578125 Z M 40.574219 33.125 C 40.59375 33.136719 40.257812 33.84375 39.929688 34.488281 C 39.289062 35.734375 38.589844 36.960938 37.652344 38.453125 C 37.496094 38.710938 37.34375 38.949219 37.324219 38.972656 C 37.292969 39.019531 37.277344 39.007812 37.171875 38.800781 C 36.949219 38.359375 36.765625 37.792969 36.664062 37.273438 C 36.566406 36.757812 36.585938 35.859375 36.699219 35.308594 C 36.785156 34.898438 36.777344 34.90625 36.976562 34.804688 C 37.820312 34.378906 40.550781 33.097656 40.574219 33.125 Z M 51.949219 33.585938 L 51.949219 33.863281 C 51.949219 35.332031 51.792969 37.351562 51.5625 38.824219 C 51.523438 39.078125 51.488281 39.289062 51.484375 39.296875 C 51.484375 39.296875 51.292969 39.246094 51.066406 39.179688 C 50.078125 38.867188 49.003906 38.414062 48.035156 37.878906 C 47.394531 37.53125 46.464844 36.957031 46.492188 36.929688 C 46.496094 36.921875 46.773438 36.777344 47.097656 36.605469 C 48.390625 35.933594 49.628906 35.207031 50.703125 34.488281 C 51.105469 34.21875 51.714844 33.785156 51.84375 33.664062 Z M 35.597656 35.539062 C 35.625 35.539062 35.617188 35.589844 35.578125 35.828125 C 35.550781 36 35.515625 36.316406 35.503906 36.535156 C 35.453125 37.496094 35.609375 38.207031 36.085938 39.183594 C 36.214844 39.457031 36.320312 39.679688 36.316406 39.6875 C 36.269531 39.726562 31.902344 41.003906 30.53125 41.378906 C 30.125 41.492188 29.765625 41.59375 29.742188 41.597656 C 29.695312 41.613281 29.6875 41.605469 29.707031 41.492188 C 29.859375 40.523438 30.597656 39.257812 31.625 38.1875 C 32.3125 37.476562 32.859375 37.0625 33.796875 36.527344 C 34.46875 36.144531 35.503906 35.570312 35.582031 35.542969 C 35.582031 35.539062 35.589844 35.539062 35.597656 35.539062 Z M 45.882812 37.378906 C 45.890625 37.371094 46.046875 37.457031 46.238281 37.570312 C 47.652344 38.386719 49.617188 39.144531 51.292969 39.535156 L 51.441406 39.566406 L 51.230469 39.6875 C 50.355469 40.175781 47.472656 41.375 44.527344 42.476562 C 44.097656 42.632812 43.675781 42.792969 43.59375 42.824219 C 43.515625 42.859375 43.445312 42.878906 43.445312 42.871094 C 43.445312 42.863281 43.5625 42.632812 43.714844 42.351562 C 44.539062 40.808594 45.371094 38.925781 45.792969 37.621094 C 45.84375 37.496094 45.878906 37.382812 45.882812 37.378906 Z M 44.835938 37.722656 C 44.84375 37.726562 44.789062 37.867188 44.722656 38.023438 C 44.148438 39.414062 43.398438 40.933594 42.433594 42.632812 C 42.191406 43.070312 41.988281 43.417969 41.980469 43.417969 C 41.972656 43.417969 41.777344 43.300781 41.539062 43.15625 C 40.140625 42.296875 38.902344 41.242188 38.089844 40.21875 L 37.96875 40.074219 L 38.570312 39.910156 C 40.71875 39.324219 42.546875 38.691406 44.359375 37.914062 C 44.617188 37.808594 44.828125 37.722656 44.835938 37.722656 Z M 51.351562 39.996094 C 51.351562 39.996094 51.355469 40.003906 51.351562 39.996094 C 51.355469 40.148438 51.019531 41.507812 50.742188 42.488281 C 50.511719 43.3125 50.316406 43.960938 49.953125 45.101562 C 49.792969 45.601562 49.65625 46.015625 49.648438 46.015625 C 49.644531 46.015625 49.601562 46.011719 49.5625 45.996094 C 47.605469 45.640625 45.851562 45.144531 44.203125 44.488281 C 43.742188 44.300781 43.082031 44.003906 43.042969 43.972656 C 43.027344 43.960938 43.425781 43.773438 43.925781 43.558594 C 46.925781 42.246094 50.039062 40.753906 51.105469 40.113281 C 51.230469 40.035156 51.332031 39.996094 51.351562 39.996094 Z M 36.308594 40.511719 C 36.320312 40.523438 35.484375 41.730469 34.3125 43.371094 C 33.902344 43.945312 33.425781 44.617188 33.25 44.871094 C 33.070312 45.121094 32.800781 45.515625 32.648438 45.753906 L 32.371094 46.179688 L 32.074219 45.929688 C 31.726562 45.640625 31.117188 45.019531 30.847656 44.679688 C 30.28125 43.972656 29.898438 43.226562 29.746094 42.546875 C 29.675781 42.230469 29.675781 42.074219 29.742188 42.054688 C 29.839844 42.027344 31.601562 41.613281 33.25 41.230469 C 34.164062 41.019531 35.226562 40.769531 35.609375 40.675781 C 35.992188 40.582031 36.300781 40.511719 36.308594 40.511719 Z M 37.152344 40.832031 L 37.363281 41.070312 C 38.3125 42.132812 39.28125 42.917969 40.457031 43.601562 C 40.667969 43.722656 40.824219 43.828125 40.8125 43.835938 C 40.765625 43.867188 36.738281 45.296875 34.871094 45.945312 C 33.824219 46.3125 32.957031 46.609375 32.953125 46.609375 C 32.945312 46.609375 32.886719 46.570312 32.820312 46.523438 L 32.703125 46.4375 L 32.894531 46.160156 C 33.511719 45.265625 34.292969 44.28125 35.984375 42.238281 Z M 42.414062 44.597656 C 42.421875 44.59375 42.710938 44.699219 43.066406 44.828125 C 43.925781 45.152344 44.605469 45.355469 45.515625 45.589844 C 46.636719 45.871094 48.257812 46.148438 49.214844 46.226562 C 49.359375 46.242188 49.4375 46.253906 49.410156 46.273438 C 49.367188 46.300781 48.398438 46.625 47.683594 46.847656 C 46.550781 47.203125 43.089844 48.226562 40.265625 49.035156 C 39.746094 49.1875 39.296875 49.3125 39.269531 49.320312 C 39.203125 49.332031 38.984375 49.273438 38.984375 49.246094 C 38.984375 49.234375 39.144531 49.03125 39.335938 48.804688 C 40.285156 47.671875 41.226562 46.40625 42.011719 45.207031 C 42.230469 44.875 42.414062 44.605469 42.414062 44.597656 Z M 41.253906 44.632812 C 41.261719 44.636719 40.792969 45.390625 39.976562 46.683594 C 39.625 47.230469 39.238281 47.851562 39.097656 48.066406 C 38.964844 48.277344 38.769531 48.609375 38.65625 48.792969 L 38.464844 49.128906 L 38.367188 49.101562 C 38.128906 49.035156 36.460938 48.449219 36.019531 48.273438 C 35.472656 48.054688 34.902344 47.789062 34.480469 47.566406 C 33.953125 47.28125 33.296875 46.859375 33.347656 46.847656 C 33.359375 46.839844 34.265625 46.597656 35.351562 46.300781 C 38.242188 45.515625 39.84375 45.058594 40.890625 44.730469 C 41.082031 44.671875 41.25 44.625 41.253906 44.632812 Z M 49.464844 46.558594 L 49.472656 46.558594 C 49.496094 46.625 48.429688 49.589844 48.039062 50.527344 C 47.953125 50.738281 47.921875 50.792969 47.875 50.785156 C 47.761719 50.777344 46.214844 50.558594 45.269531 50.421875 C 43.628906 50.171875 40.871094 49.691406 40.179688 49.53125 L 40.023438 49.5 L 41.003906 49.273438 C 43.113281 48.800781 44.128906 48.542969 45.160156 48.226562 C 46.457031 47.832031 47.742188 47.335938 49.042969 46.730469 C 49.246094 46.636719 49.417969 46.5625 49.464844 46.558594 Z M 49.464844 46.558594 "/>
<path style=" stroke:none;fill-rule:nonzero;fill:url(#linear1);" d="M 44.566406 7.566406 C 44.421875 7.546875 42.078125 8.390625 40.570312 9.003906 C 38.53125 9.832031 36.949219 10.625 35.972656 11.308594 C 35.609375 11.566406 35.15625 12.023438 35.082031 12.199219 C 35.054688 12.265625 35.042969 12.34375 35.042969 12.425781 L 35.925781 13.261719 L 38.03125 13.933594 L 43.035156 14.832031 L 48.757812 15.8125 L 48.820312 15.320312 C 48.796875 15.320312 48.785156 15.3125 48.765625 15.3125 L 48.015625 15.195312 L 47.863281 14.925781 C 47.085938 13.550781 46.226562 11.851562 45.726562 10.703125 C 45.335938 9.8125 44.96875 8.785156 44.761719 8.046875 C 44.652344 7.597656 44.636719 7.570312 44.566406 7.566406 Z M 44.460938 7.902344 L 44.464844 7.902344 C 44.472656 7.90625 44.5 8.09375 44.527344 8.308594 C 44.636719 9.234375 44.84375 10.125 45.164062 11.085938 C 45.410156 11.8125 45.410156 11.773438 45.125 11.6875 C 44.453125 11.5 41.4375 10.980469 39.257812 10.675781 C 38.90625 10.632812 38.609375 10.585938 38.609375 10.578125 C 38.585938 10.550781 40.1875 9.714844 40.890625 9.386719 C 41.796875 8.96875 44.273438 7.933594 44.460938 7.902344 Z M 38.101562 10.855469 L 38.359375 10.941406 C 39.757812 11.414062 43.273438 12.089844 45.210938 12.246094 C 45.429688 12.265625 45.613281 12.285156 45.621094 12.285156 C 45.625 12.292969 45.441406 12.390625 45.203125 12.503906 C 44.269531 12.972656 43.238281 13.546875 42.527344 13.988281 C 42.316406 14.121094 42.125 14.226562 42.097656 14.226562 C 42.074219 14.226562 41.933594 14.199219 41.789062 14.179688 L 41.523438 14.140625 L 40.867188 13.492188 C 39.707031 12.367188 38.796875 11.496094 38.445312 11.164062 Z M 37.839844 11.058594 L 38.769531 12.21875 C 39.277344 12.859375 39.789062 13.488281 39.902344 13.625 C 40.015625 13.761719 40.105469 13.875 40.101562 13.882812 C 40.074219 13.902344 38.753906 13.644531 38.054688 13.488281 C 37.335938 13.320312 37.039062 13.242188 36.597656 13.105469 L 36.238281 12.984375 L 36.238281 12.894531 C 36.242188 12.449219 36.804688 11.792969 37.753906 11.121094 Z M 45.738281 12.640625 C 45.765625 12.640625 45.796875 12.703125 45.878906 12.878906 C 46.101562 13.375 46.800781 14.707031 46.972656 14.964844 C 47.023438 15.050781 47.117188 15.054688 46.1875 14.90625 C 43.953125 14.542969 43.234375 14.421875 43.234375 14.410156 C 43.234375 14.402344 43.300781 14.355469 43.382812 14.3125 C 44.078125 13.929688 44.777344 13.441406 45.394531 12.917969 C 45.546875 12.792969 45.6875 12.675781 45.710938 12.65625 C 45.71875 12.640625 45.730469 12.636719 45.738281 12.640625 Z M 45.738281 12.640625 "/>
<path style=" stroke:none;fill-rule:nonzero;fill:url(#radial0);" d="M 35.128906 12.109375 C 35.128906 12.109375 34.984375 12.339844 35.121094 12.683594 C 35.207031 12.894531 35.457031 13.148438 35.742188 13.414062 C 35.742188 13.414062 38.675781 16.277344 39.03125 16.683594 C 40.65625 18.558594 41.359375 20.402344 41.425781 22.949219 C 41.464844 24.585938 41.15625 26.023438 40.382812 27.691406 C 39.011719 30.683594 36.117188 33.988281 31.652344 37.65625 L 32.304688 37.4375 C 32.726562 37.121094 33.300781 36.785156 34.648438 36.046875 C 37.753906 34.34375 41.25 32.78125 45.535156 31.171875 C 51.707031 28.851562 61.855469 26.132812 67.632812 25.25 L 68.230469 25.160156 L 68.140625 25.011719 C 67.613281 24.195312 67.25 23.6875 66.8125 23.148438 C 65.546875 21.578125 64.011719 20.304688 62.132812 19.25 C 59.546875 17.804688 56.203125 16.679688 51.96875 15.839844 C 51.171875 15.683594 49.417969 15.378906 47.992188 15.160156 C 44.972656 14.695312 43.023438 14.371094 40.871094 14 C 40.101562 13.867188 38.945312 13.671875 38.179688 13.507812 C 37.785156 13.421875 37.027344 13.242188 36.433594 13.039062 C 35.960938 12.851562 35.273438 12.667969 35.128906 12.109375 Z M 36.828125 13.757812 C 36.835938 13.75 36.941406 13.789062 37.082031 13.835938 C 37.332031 13.921875 37.652344 14.019531 38.035156 14.125 C 38.324219 14.207031 38.617188 14.28125 38.90625 14.355469 C 39.304688 14.457031 39.632812 14.546875 39.640625 14.546875 C 39.683594 14.59375 40.351562 16.722656 40.574219 17.542969 C 40.660156 17.851562 40.726562 18.117188 40.71875 18.117188 C 40.714844 18.121094 40.640625 18.011719 40.554688 17.859375 C 39.785156 16.5 38.5625 15.121094 37.152344 14.015625 C 36.96875 13.882812 36.828125 13.761719 36.828125 13.757812 Z M 40.074219 14.652344 C 40.105469 14.652344 40.253906 14.671875 40.429688 14.714844 C 41.550781 14.964844 43.5625 15.347656 44.847656 15.5625 C 45.066406 15.597656 45.238281 15.636719 45.238281 15.648438 C 45.238281 15.664062 45.160156 15.707031 45.058594 15.761719 C 44.84375 15.875 43.964844 16.394531 43.675781 16.59375 C 42.941406 17.082031 42.285156 17.609375 41.808594 18.082031 C 41.617188 18.273438 41.453125 18.433594 41.453125 18.433594 C 41.453125 18.433594 41.414062 18.320312 41.378906 18.179688 C 41.144531 17.265625 40.648438 15.90625 40.199219 14.949219 C 40.128906 14.796875 40.066406 14.660156 40.066406 14.648438 C 40.066406 14.660156 40.066406 14.652344 40.074219 14.652344 Z M 45.785156 15.742188 C 45.824219 15.753906 45.890625 15.980469 46.023438 16.472656 C 46.265625 17.429688 46.378906 18.5 46.339844 19.492188 C 46.324219 19.769531 46.3125 20.027344 46.300781 20.0625 L 46.28125 20.128906 L 45.9375 20.015625 C 45.230469 19.789062 44.082031 19.453125 43.101562 19.175781 C 42.539062 19.027344 42.085938 18.886719 42.085938 18.875 C 42.085938 18.835938 42.902344 18.015625 43.253906 17.707031 C 43.917969 17.121094 45.726562 15.722656 45.785156 15.742188 Z M 46.238281 15.808594 C 46.261719 15.789062 48.96875 16.257812 50.203125 16.492188 C 51.121094 16.671875 52.453125 16.949219 52.53125 16.980469 C 52.570312 16.996094 52.433594 17.074219 51.992188 17.273438 C 50.25 18.054688 48.957031 18.761719 47.671875 19.621094 C 47.335938 19.84375 47.050781 20.027344 47.042969 20.027344 C 47.039062 20.027344 47.03125 19.835938 47.03125 19.605469 C 47.03125 18.351562 46.78125 17.085938 46.320312 16.019531 C 46.273438 15.914062 46.234375 15.8125 46.238281 15.808594 Z M 53.25 17.191406 C 53.269531 17.210938 53.183594 17.746094 53.105469 18.0625 C 52.867188 19.046875 52.226562 20.503906 51.441406 21.875 C 51.304688 22.117188 51.179688 22.316406 51.164062 22.324219 C 51.152344 22.328125 50.976562 22.230469 50.769531 22.113281 C 50.003906 21.664062 49.136719 21.242188 48.183594 20.847656 C 47.921875 20.734375 47.691406 20.640625 47.683594 20.628906 C 47.636719 20.589844 49.761719 19.183594 50.882812 18.511719 C 51.773438 17.972656 53.222656 17.167969 53.25 17.191406 Z M 53.75 17.273438 C 53.808594 17.273438 55.011719 17.601562 55.636719 17.785156 C 57.1875 18.246094 58.96875 18.902344 60.128906 19.429688 L 60.609375 19.644531 L 60.273438 19.726562 C 57.4375 20.378906 55.011719 21.128906 52.667969 22.078125 C 52.476562 22.15625 52.308594 22.222656 52.292969 22.222656 C 52.28125 22.222656 52.347656 22.074219 52.433594 21.886719 C 53.136719 20.390625 53.59375 18.828125 53.703125 17.496094 C 53.710938 17.371094 53.730469 17.273438 53.75 17.273438 Z M 41.800781 20.015625 C 41.820312 19.996094 42.738281 20.210938 43.234375 20.351562 C 43.984375 20.5625 45.582031 21.097656 45.582031 21.136719 C 45.582031 21.140625 45.402344 21.292969 45.191406 21.480469 C 44.328125 22.199219 43.496094 22.957031 42.5 23.917969 C 42.203125 24.203125 41.953125 24.433594 41.941406 24.433594 C 41.925781 24.433594 41.921875 24.394531 41.925781 24.339844 C 42.078125 23.234375 42.046875 21.808594 41.835938 20.363281 C 41.816406 20.179688 41.796875 20.023438 41.800781 20.015625 Z M 61.0625 20.035156 C 61.078125 20.046875 60.640625 20.734375 60.367188 21.121094 C 59.96875 21.691406 59.390625 22.441406 58.078125 24.089844 C 57.382812 24.960938 56.605469 25.941406 56.347656 26.273438 C 56.085938 26.601562 55.867188 26.878906 55.859375 26.878906 C 55.855469 26.878906 55.769531 26.761719 55.675781 26.617188 C 54.9375 25.507812 54.054688 24.539062 53.003906 23.667969 C 52.808594 23.503906 52.589844 23.324219 52.519531 23.273438 C 52.445312 23.21875 52.386719 23.167969 52.386719 23.160156 C 52.386719 23.140625 53.507812 22.660156 54.359375 22.316406 C 55.847656 21.710938 57.878906 20.984375 59.402344 20.515625 C 60.199219 20.265625 61.050781 20.023438 61.0625 20.035156 Z M 61.570312 20.167969 C 61.597656 20.160156 61.757812 20.238281 61.949219 20.351562 C 63.550781 21.269531 65.121094 22.449219 66.359375 23.660156 C 66.710938 24.003906 67.574219 24.902344 67.558594 24.90625 C 67.558594 24.90625 67.257812 24.933594 66.898438 24.960938 C 64.125 25.171875 60.570312 25.757812 57.152344 26.582031 C 56.921875 26.636719 56.71875 26.683594 56.707031 26.683594 C 56.691406 26.683594 56.949219 26.425781 57.273438 26.113281 C 59.277344 24.183594 60.195312 22.960938 61.273438 20.785156 C 61.425781 20.464844 61.558594 20.1875 61.570312 20.167969 C 61.566406 20.167969 61.566406 20.167969 61.570312 20.167969 Z M 46.886719 21.671875 C 46.980469 21.691406 47.835938 22.09375 48.480469 22.414062 C 49.074219 22.710938 49.964844 23.1875 50.011719 23.226562 C 50.019531 23.234375 49.703125 23.398438 49.3125 23.589844 C 48.074219 24.207031 47.011719 24.796875 45.902344 25.46875 C 45.585938 25.660156 45.324219 25.816406 45.316406 25.816406 C 45.289062 25.816406 45.296875 25.792969 45.476562 25.46875 C 46.070312 24.386719 46.542969 23.09375 46.8125 21.835938 C 46.839844 21.734375 46.867188 21.671875 46.886719 21.671875 Z M 46.027344 21.828125 C 46.046875 21.847656 45.824219 22.660156 45.6875 23.101562 C 45.414062 23.9375 44.960938 24.988281 44.519531 25.777344 C 44.414062 25.964844 44.253906 26.234375 44.167969 26.386719 L 44.003906 26.648438 L 43.636719 26.292969 C 43.207031 25.878906 42.855469 25.621094 42.410156 25.390625 C 42.230469 25.296875 42.09375 25.21875 42.09375 25.203125 C 42.09375 25.152344 43.21875 24.128906 44.082031 23.390625 C 44.703125 22.855469 46.007812 21.808594 46.027344 21.828125 Z M 51.273438 23.984375 L 51.59375 24.195312 C 52.332031 24.675781 53.203125 25.316406 53.871094 25.878906 C 54.246094 26.1875 54.972656 26.839844 55.117188 27 L 55.195312 27.085938 L 54.660156 27.234375 C 51.640625 28.074219 49.304688 28.820312 46.582031 29.820312 C 46.28125 29.933594 46.023438 30.023438 46.003906 30.023438 C 45.964844 30.023438 45.929688 30.058594 46.609375 29.433594 C 48.351562 27.828125 49.894531 26.0625 51.039062 24.339844 Z M 49.894531 24.328125 C 49.90625 24.339844 49.003906 25.613281 48.460938 26.332031 C 47.816406 27.191406 46.667969 28.628906 45.878906 29.5625 C 45.546875 29.953125 45.265625 30.277344 45.25 30.28125 C 45.230469 30.289062 45.222656 30.191406 45.222656 30.039062 C 45.222656 29.242188 45.019531 28.390625 44.664062 27.664062 C 44.511719 27.359375 44.484375 27.289062 44.519531 27.253906 C 44.644531 27.144531 46.5625 26.046875 47.777344 25.394531 C 48.59375 24.960938 49.875 24.316406 49.894531 24.328125 Z M 41.558594 26.371094 C 41.578125 26.371094 41.730469 26.449219 41.902344 26.542969 C 42.324219 26.773438 42.699219 27.03125 43.035156 27.308594 C 43.046875 27.320312 42.875 27.460938 42.652344 27.625 C 42.027344 28.074219 41.078125 28.792969 40.523438 29.234375 C 39.941406 29.695312 39.921875 29.707031 39.988281 29.609375 C 40.425781 28.945312 40.640625 28.566406 40.871094 28.085938 C 41.078125 27.65625 41.28125 27.148438 41.425781 26.707031 C 41.480469 26.515625 41.542969 26.371094 41.558594 26.371094 Z M 43.78125 28.113281 C 43.8125 28.105469 43.851562 28.164062 44.03125 28.429688 C 44.40625 28.988281 44.695312 29.742188 44.769531 30.347656 L 44.78125 30.480469 L 43.878906 30.828125 C 42.261719 31.457031 40.773438 32.078125 39.765625 32.539062 C 39.480469 32.667969 38.984375 32.90625 38.664062 33.066406 C 38.339844 33.230469 38.078125 33.355469 38.078125 33.347656 C 38.078125 33.34375 38.28125 33.191406 38.53125 33.007812 C 40.503906 31.574219 42.210938 30.003906 43.488281 28.4375 C 43.628906 28.269531 43.753906 28.121094 43.765625 28.113281 Z M 42.757812 28.363281 C 42.785156 28.390625 42.03125 29.242188 41.519531 29.761719 C 40.246094 31.0625 38.984375 32.078125 37.421875 33.066406 C 37.226562 33.191406 37.046875 33.300781 37.027344 33.316406 C 36.980469 33.34375 37.039062 33.277344 37.726562 32.53125 C 38.160156 32.0625 38.492188 31.667969 38.867188 31.179688 C 39.117188 30.855469 39.164062 30.808594 39.527344 30.554688 C 40.496094 29.855469 42.730469 28.335938 42.757812 28.363281 Z M 42.757812 28.363281 "/>
<path style=" stroke:none;fill-rule:nonzero;fill:rgb(13.72549%,12.156863%,12.156863%);fill-opacity:1;" d="M 14.203125 55.667969 C 14.082031 55.667969 13.960938 55.679688 13.839844 55.679688 C 11.382812 55.8125 9.722656 56.894531 8.753906 59.003906 C 7.925781 60.914062 8.015625 63.410156 8.765625 65.332031 C 9.632812 67.210938 11.039062 68.199219 13.382812 68.574219 C 13.878906 68.65625 14.210938 68.929688 15.171875 70.050781 L 16.355469 71.433594 L 18.5 71.433594 L 17.074219 69.996094 C 16.285156 69.210938 15.648438 68.523438 15.648438 68.464844 C 15.648438 68.402344 15.949219 68.269531 16.3125 68.160156 C 17.515625 67.796875 18.515625 66.867188 19.214844 65.441406 C 19.78125 64.296875 19.863281 63.945312 19.941406 62.523438 C 20.15625 58.285156 17.921875 55.636719 14.203125 55.667969 Z M 16.082031 66.746094 C 15.039062 67.25 13.523438 67.351562 12.535156 66.988281 C 11.515625 66.613281 10.523438 65.550781 10.078125 64.351562 C 9.585938 63.035156 9.65625 60.613281 10.21875 59.519531 C 11.128906 57.78125 12.332031 56.980469 14.089844 56.980469 C 16.699219 56.980469 18.183594 58.578125 18.375 61.582031 C 18.527344 64.085938 17.691406 65.964844 16.082031 66.746094 Z M 53.121094 59.285156 C 52.21875 59.285156 51.53125 59.652344 51.066406 60.367188 L 50.703125 60.9375 L 50.703125 59.460938 L 49.148438 59.460938 L 49.148438 68.3125 L 50.703125 68.3125 L 50.703125 65.484375 C 50.703125 62.894531 50.734375 62.59375 51.097656 61.886719 C 51.597656 60.914062 52.453125 60.429688 53.28125 60.660156 L 53.839844 60.824219 L 53.839844 59.289062 L 53.121094 59.289062 Z M 43.976562 59.207031 C 43.671875 59.207031 43.347656 59.246094 43.027344 59.316406 C 40.941406 59.863281 39.769531 61.855469 39.839844 63.90625 C 39.839844 65.625 40.175781 66.484375 41.003906 67.382812 C 42.699219 68.777344 44.238281 68.886719 46.308594 68.140625 C 46.664062 67.988281 47.046875 67.816406 47.046875 67.816406 L 47.046875 66.421875 L 46.308594 66.804688 C 44.632812 67.535156 43.367188 67.535156 42.355469 66.675781 C 41.710938 66.019531 41.425781 65.230469 41.296875 64.332031 L 47.570312 64.332031 L 47.570312 63.136719 C 47.570312 60.703125 46.105469 59.167969 43.972656 59.207031 Z M 41.4375 63.089844 C 41.4375 63.089844 41.667969 61.570312 42.53125 60.972656 C 42.941406 60.683594 43.417969 60.542969 43.882812 60.542969 C 44.347656 60.542969 44.8125 60.691406 45.195312 60.984375 C 45.984375 61.589844 46.117188 63.078125 46.117188 63.078125 L 41.4375 63.078125 Z M 3.914062 61.492188 C 2.226562 60.46875 1.476562 59.730469 1.570312 58.863281 C 1.832031 56.457031 4.804688 56.789062 6.449219 57.699219 L 6.460938 56.082031 C 6.460938 56.082031 5.550781 55.6875 4.246094 55.667969 C 2.246094 55.636719 0.953125 56.292969 0.347656 57.628906 C -0.542969 59.597656 0.246094 61.085938 3.09375 62.742188 C 4.691406 63.671875 5.398438 64.480469 5.398438 65.359375 C 5.398438 67.179688 3.207031 67.816406 0.941406 66.675781 C 0.476562 66.441406 0.0820312 66.25 0.0625 66.25 C -0.0195312 66.765625 0.0234375 68 0.0234375 68 C 0.0234375 68 0.71875 68.289062 1.761719 68.492188 C 4.347656 69.007812 6.703125 67.792969 6.925781 65.824219 C 7.117188 63.976562 6.449219 63.003906 3.914062 61.488281 Z M 66.894531 59.183594 C 66.589844 59.183594 66.269531 59.226562 65.933594 59.296875 C 63.851562 59.84375 62.679688 61.835938 62.761719 63.886719 C 62.761719 65.601562 63.09375 66.453125 63.921875 67.351562 C 65.621094 68.746094 67.15625 68.859375 69.238281 68.109375 C 69.589844 67.960938 69.972656 67.789062 69.972656 67.789062 L 69.972656 66.394531 L 69.238281 66.777344 C 67.558594 67.503906 66.292969 67.503906 65.285156 66.644531 C 64.636719 65.988281 64.355469 65.210938 64.222656 64.300781 L 70.488281 64.300781 L 70.488281 63.105469 C 70.488281 60.683594 69.023438 59.148438 66.890625 59.1875 Z M 64.355469 63.066406 C 64.355469 63.066406 64.589844 61.550781 65.449219 60.945312 C 65.863281 60.652344 66.335938 60.507812 66.800781 60.507812 C 67.265625 60.507812 67.734375 60.660156 68.117188 60.953125 C 68.90625 61.5625 69.035156 63.058594 69.035156 63.058594 L 64.359375 63.058594 Z M 35.828125 61.511719 C 34.140625 60.492188 33.394531 59.75 33.484375 58.882812 C 33.746094 56.476562 36.71875 56.808594 38.363281 57.71875 L 38.375 56.101562 C 38.375 56.101562 37.464844 55.707031 36.160156 55.691406 C 34.160156 55.660156 32.867188 56.316406 32.261719 57.652344 C 31.371094 59.621094 32.171875 61.105469 35.011719 62.765625 C 36.605469 63.695312 37.3125 64.492188 37.3125 65.371094 C 37.3125 67.191406 35.121094 67.835938 32.859375 66.683594 C 32.394531 66.453125 32 66.261719 31.976562 66.261719 C 31.894531 66.777344 31.9375 68.011719 31.9375 68.011719 C 31.9375 68.011719 32.625 68.292969 33.664062 68.503906 C 36.253906 69.023438 38.609375 67.808594 38.828125 65.839844 C 39.023438 64 38.355469 63.027344 35.828125 61.511719 Z M 76.039062 59.265625 C 75.140625 59.265625 74.445312 59.632812 73.988281 60.347656 L 73.625 60.914062 L 73.625 59.441406 L 72.070312 59.441406 L 72.070312 68.292969 L 73.625 68.292969 L 73.625 65.460938 C 73.625 62.875 73.65625 62.570312 74.019531 61.863281 C 74.515625 60.894531 75.375 60.410156 76.203125 60.640625 L 76.757812 60.804688 L 76.757812 59.265625 Z M 23.449219 61.460938 L 23.449219 55.820312 L 21.882812 55.820312 L 21.882812 68.3125 L 28.480469 68.3125 L 28.480469 66.835938 L 23.449219 66.835938 Z M 59.738281 63.21875 L 58.445312 66.582031 L 57.203125 63.199219 L 55.9375 59.449219 L 54.332031 59.449219 C 55.375 62.398438 56.507812 65.402344 57.648438 68.3125 C 58.140625 68.324219 58.636719 68.3125 59.132812 68.3125 L 60.878906 63.925781 L 62.660156 59.449219 L 61.125 59.449219 C 61.125 59.449219 60.445312 61.226562 59.738281 63.21875 Z M 27.066406 52.417969 C 27.320312 52.417969 27.53125 52.335938 27.703125 52.160156 C 27.875 51.992188 27.964844 51.789062 27.964844 51.535156 C 27.964844 51.285156 27.875 51.074219 27.703125 50.910156 C 27.53125 50.746094 27.328125 50.667969 27.078125 50.667969 C 26.824219 50.667969 26.613281 50.746094 26.441406 50.917969 C 26.265625 51.089844 26.1875 51.300781 26.1875 51.546875 C 26.1875 51.800781 26.269531 52.011719 26.441406 52.171875 C 26.601562 52.332031 26.8125 52.414062 27.066406 52.414062 Z M 26.511719 50.980469 C 26.660156 50.828125 26.84375 50.757812 27.078125 50.757812 C 27.296875 50.757812 27.480469 50.828125 27.632812 50.980469 C 27.785156 51.128906 27.867188 51.3125 27.867188 51.535156 C 27.867188 51.757812 27.785156 51.949219 27.632812 52.101562 C 27.480469 52.253906 27.296875 52.324219 27.078125 52.324219 C 26.855469 52.324219 26.671875 52.253906 26.523438 52.101562 C 26.371094 51.949219 26.289062 51.757812 26.289062 51.535156 C 26.289062 51.3125 26.359375 51.128906 26.511719 50.980469 Z M 26.882812 51.617188 L 26.988281 51.617188 C 27.058594 51.617188 27.128906 51.6875 27.191406 51.820312 L 27.3125 52.09375 L 27.503906 52.09375 L 27.351562 51.789062 C 27.289062 51.667969 27.230469 51.597656 27.160156 51.578125 C 27.25 51.554688 27.320312 51.527344 27.371094 51.464844 C 27.421875 51.414062 27.441406 51.34375 27.441406 51.261719 C 27.441406 51.167969 27.410156 51.101562 27.347656 51.050781 C 27.28125 50.992188 27.167969 50.960938 27.023438 50.960938 L 26.703125 50.960938 L 26.703125 52.09375 L 26.863281 52.09375 L 26.863281 51.617188 Z M 26.882812 51.089844 L 27.027344 51.089844 C 27.128906 51.089844 27.199219 51.113281 27.238281 51.140625 C 27.277344 51.171875 27.289062 51.210938 27.289062 51.285156 C 27.289062 51.414062 27.207031 51.476562 27.054688 51.476562 L 26.882812 51.476562 Z M 0.964844 51.515625 C 0.964844 51.121094 0.953125 50.828125 0.941406 50.65625 L 0.953125 50.65625 C 0.992188 50.859375 1.042969 51.011719 1.082031 51.113281 L 2.589844 54.480469 L 2.84375 54.480469 L 4.347656 51.082031 C 4.390625 50.992188 4.429688 50.851562 4.480469 50.65625 L 4.492188 50.65625 C 4.460938 50.992188 4.449219 51.285156 4.449219 51.519531 L 4.449219 54.488281 L 4.964844 54.488281 L 4.964844 50.074219 L 4.320312 50.074219 L 2.933594 53.144531 C 2.882812 53.265625 2.8125 53.449219 2.722656 53.6875 L 2.703125 53.6875 C 2.671875 53.570312 2.601562 53.386719 2.5 53.164062 L 1.148438 50.0625 L 0.460938 50.0625 L 0.460938 54.476562 L 0.957031 54.476562 L 0.957031 51.519531 Z M 6.097656 51.523438 L 6.542969 51.523438 L 6.542969 54.273438 L 6.097656 54.273438 Z M 6.320312 50.515625 C 6.410156 50.515625 6.492188 50.484375 6.550781 50.421875 C 6.613281 50.363281 6.652344 50.285156 6.652344 50.191406 C 6.652344 50.101562 6.621094 50.019531 6.550781 49.960938 C 6.488281 49.898438 6.410156 49.867188 6.316406 49.867188 C 6.226562 49.867188 6.148438 49.898438 6.085938 49.960938 C 6.023438 50.019531 5.984375 50.101562 5.984375 50.191406 C 5.984375 50.292969 6.015625 50.363281 6.085938 50.421875 C 6.15625 50.484375 6.226562 50.515625 6.316406 50.515625 Z M 9.714844 54.335938 L 9.714844 53.851562 C 9.472656 54.03125 9.210938 54.121094 8.9375 54.121094 C 8.613281 54.121094 8.351562 54.011719 8.160156 53.796875 C 7.96875 53.585938 7.867188 53.292969 7.867188 52.929688 C 7.867188 52.546875 7.96875 52.242188 8.179688 52.011719 C 8.382812 51.789062 8.644531 51.675781 8.964844 51.675781 C 9.230469 51.675781 9.480469 51.757812 9.714844 51.921875 L 9.714844 51.40625 C 9.503906 51.292969 9.261719 51.242188 8.988281 51.242188 C 8.480469 51.242188 8.089844 51.40625 7.792969 51.71875 C 7.5 52.03125 7.351562 52.457031 7.351562 52.96875 C 7.351562 53.425781 7.480469 53.808594 7.753906 54.101562 C 8.039062 54.40625 8.402344 54.558594 8.847656 54.558594 C 9.191406 54.546875 9.472656 54.476562 9.714844 54.335938 Z M 10.988281 52.867188 C 10.988281 52.507812 11.070312 52.214844 11.21875 52.011719 C 11.363281 51.828125 11.535156 51.738281 11.734375 51.738281 C 11.90625 51.738281 12.027344 51.769531 12.117188 51.839844 L 12.117188 51.3125 C 12.050781 51.285156 11.949219 51.273438 11.816406 51.273438 C 11.636719 51.273438 11.472656 51.335938 11.332031 51.445312 C 11.179688 51.566406 11.058594 51.75 10.988281 51.980469 L 10.976562 51.980469 L 10.976562 51.335938 L 10.472656 51.335938 L 10.472656 54.488281 L 10.976562 54.488281 L 10.976562 52.867188 Z M 13.890625 54.550781 C 14.363281 54.550781 14.746094 54.394531 15.03125 54.09375 C 15.3125 53.792969 15.457031 53.386719 15.457031 52.878906 C 15.457031 52.363281 15.324219 51.96875 15.0625 51.675781 C 14.800781 51.382812 14.433594 51.242188 13.960938 51.242188 C 13.484375 51.242188 13.101562 51.382812 12.820312 51.65625 C 12.515625 51.960938 12.355469 52.382812 12.355469 52.929688 C 12.355469 53.40625 12.484375 53.800781 12.757812 54.09375 C 13.042969 54.394531 13.414062 54.546875 13.890625 54.546875 Z M 13.171875 51.980469 C 13.363281 51.777344 13.617188 51.675781 13.929688 51.675781 C 14.253906 51.675781 14.496094 51.777344 14.675781 51.980469 C 14.859375 52.191406 14.949219 52.496094 14.949219 52.898438 C 14.949219 53.285156 14.867188 53.585938 14.695312 53.789062 C 14.527344 54.003906 14.273438 54.113281 13.9375 54.113281 C 13.613281 54.113281 13.363281 54.003906 13.171875 53.789062 C 12.980469 53.578125 12.886719 53.285156 12.886719 52.898438 C 12.867188 52.519531 12.96875 52.203125 13.171875 51.980469 Z M 17.667969 54.273438 C 17.859375 54.101562 17.960938 53.890625 17.960938 53.628906 C 17.960938 53.394531 17.878906 53.203125 17.730469 53.050781 C 17.605469 52.929688 17.417969 52.820312 17.144531 52.707031 C 16.898438 52.605469 16.75 52.515625 16.667969 52.445312 C 16.585938 52.363281 16.535156 52.265625 16.535156 52.121094 C 16.535156 51.992188 16.585938 51.890625 16.6875 51.808594 C 16.789062 51.726562 16.917969 51.6875 17.09375 51.6875 C 17.367188 51.6875 17.597656 51.757812 17.8125 51.910156 L 17.8125 51.40625 C 17.605469 51.304688 17.386719 51.253906 17.132812 51.253906 C 16.808594 51.253906 16.535156 51.34375 16.332031 51.515625 C 16.121094 51.6875 16.019531 51.910156 16.019531 52.171875 C 16.019531 52.40625 16.089844 52.597656 16.222656 52.738281 C 16.332031 52.859375 16.523438 52.984375 16.789062 53.09375 C 17.039062 53.203125 17.210938 53.304688 17.304688 53.386719 C 17.394531 53.46875 17.433594 53.566406 17.433594 53.6875 C 17.433594 53.980469 17.234375 54.132812 16.839844 54.132812 C 16.535156 54.132812 16.261719 54.035156 16.019531 53.832031 L 16.019531 54.375 C 16.238281 54.507812 16.503906 54.570312 16.796875 54.570312 C 17.171875 54.550781 17.464844 54.457031 17.664062 54.277344 Z M 20.074219 51.242188 C 19.597656 51.242188 19.214844 51.382812 18.933594 51.65625 C 18.628906 51.960938 18.46875 52.382812 18.46875 52.929688 C 18.46875 53.40625 18.597656 53.800781 18.871094 54.09375 C 19.15625 54.394531 19.527344 54.546875 20.003906 54.546875 C 20.492188 54.546875 20.863281 54.394531 21.144531 54.089844 C 21.429688 53.789062 21.570312 53.382812 21.570312 52.878906 C 21.570312 52.363281 21.4375 51.96875 21.175781 51.675781 C 20.902344 51.382812 20.539062 51.242188 20.074219 51.242188 Z M 21.054688 52.898438 C 21.054688 53.285156 20.972656 53.585938 20.800781 53.789062 C 20.628906 54.003906 20.378906 54.113281 20.042969 54.113281 C 19.71875 54.113281 19.46875 54.003906 19.273438 53.789062 C 19.082031 53.578125 18.992188 53.285156 18.992188 52.898438 C 18.992188 52.496094 19.09375 52.183594 19.296875 51.96875 C 19.488281 51.769531 19.738281 51.667969 20.054688 51.667969 C 20.367188 51.667969 20.617188 51.769531 20.800781 51.96875 C 20.960938 52.191406 21.054688 52.496094 21.054688 52.898438 Z M 22.417969 54.476562 L 22.921875 54.476562 L 22.921875 51.75 L 23.660156 51.75 L 23.660156 51.324219 L 22.921875 51.324219 L 22.921875 50.835938 C 22.921875 50.394531 23.09375 50.171875 23.449219 50.171875 C 23.570312 50.171875 23.691406 50.203125 23.78125 50.253906 L 23.78125 49.796875 C 23.691406 49.757812 23.570312 49.746094 23.417969 49.746094 C 23.144531 49.746094 22.921875 49.828125 22.742188 50 C 22.527344 50.203125 22.414062 50.464844 22.414062 50.820312 L 22.414062 51.335938 L 21.882812 51.335938 L 21.882812 51.761719 L 22.414062 51.761719 L 22.414062 54.480469 Z M 24.492188 53.617188 C 24.492188 54.234375 24.761719 54.546875 25.320312 54.546875 C 25.519531 54.546875 25.671875 54.515625 25.792969 54.445312 L 25.792969 54.011719 C 25.703125 54.078125 25.589844 54.113281 25.46875 54.113281 C 25.296875 54.113281 25.175781 54.070312 25.105469 53.980469 C 25.035156 53.890625 24.996094 53.738281 24.996094 53.527344 L 24.996094 51.746094 L 25.792969 51.746094 L 25.792969 51.324219 L 24.996094 51.324219 L 24.996094 50.394531 C 24.820312 50.453125 24.648438 50.503906 24.488281 50.554688 L 24.488281 51.324219 L 23.945312 51.324219 L 23.945312 51.746094 L 24.488281 51.746094 L 24.488281 53.617188 Z M 78.730469 59.429688 C 78.558594 59.265625 78.355469 59.183594 78.101562 59.183594 C 77.847656 59.183594 77.636719 59.265625 77.464844 59.441406 C 77.292969 59.609375 77.214844 59.824219 77.214844 60.066406 C 77.214844 60.320312 77.292969 60.53125 77.464844 60.691406 C 77.636719 60.855469 77.847656 60.933594 78.101562 60.933594 C 78.351562 60.933594 78.566406 60.855469 78.738281 60.683594 C 78.910156 60.507812 79 60.308594 79 60.054688 C 78.992188 59.800781 78.898438 59.589844 78.726562 59.429688 Z M 78.648438 60.621094 C 78.496094 60.773438 78.3125 60.84375 78.089844 60.84375 C 77.871094 60.84375 77.6875 60.773438 77.535156 60.621094 C 77.382812 60.46875 77.304688 60.277344 77.304688 60.054688 C 77.304688 59.835938 77.371094 59.652344 77.527344 59.496094 C 77.675781 59.347656 77.859375 59.277344 78.089844 59.277344 C 78.3125 59.277344 78.496094 59.347656 78.648438 59.496094 C 78.796875 59.652344 78.878906 59.835938 78.878906 60.054688 C 78.878906 60.289062 78.808594 60.46875 78.648438 60.621094 Z M 78.195312 60.105469 C 78.285156 60.085938 78.355469 60.046875 78.40625 59.996094 C 78.457031 59.941406 78.476562 59.871094 78.476562 59.792969 C 78.476562 59.699219 78.445312 59.628906 78.386719 59.578125 C 78.316406 59.519531 78.203125 59.488281 78.058594 59.488281 L 77.738281 59.488281 L 77.738281 60.621094 L 77.902344 60.621094 L 77.902344 60.144531 L 78 60.144531 C 78.070312 60.144531 78.140625 60.214844 78.203125 60.347656 L 78.324219 60.621094 L 78.515625 60.621094 L 78.367188 60.316406 C 78.3125 60.183594 78.253906 60.125 78.191406 60.105469 Z M 78.082031 60.003906 L 77.910156 60.003906 L 77.910156 59.621094 L 78.050781 59.621094 C 78.152344 59.621094 78.222656 59.640625 78.261719 59.671875 C 78.304688 59.703125 78.3125 59.742188 78.3125 59.8125 C 78.3125 59.945312 78.230469 60.003906 78.082031 60.003906 Z M 49.886719 51.191406 L 50.027344 51.191406 L 50.027344 50.0625 L 50.402344 50.0625 L 50.402344 49.917969 L 49.511719 49.917969 L 49.511719 50.0625 L 49.886719 50.0625 Z M 50.742188 50.34375 C 50.742188 50.230469 50.742188 50.140625 50.734375 50.089844 C 50.746094 50.152344 50.765625 50.191406 50.773438 50.222656 L 51.210938 51.191406 L 51.28125 51.191406 L 51.714844 50.210938 C 51.726562 50.183594 51.734375 50.144531 51.753906 50.089844 C 51.746094 50.191406 51.746094 50.273438 51.746094 50.335938 L 51.746094 51.191406 L 51.898438 51.191406 L 51.898438 49.917969 L 51.714844 49.917969 L 51.320312 50.796875 C 51.3125 50.828125 51.28125 50.890625 51.261719 50.960938 L 51.25 50.960938 C 51.242188 50.917969 51.21875 50.878906 51.191406 50.808594 L 50.796875 49.917969 L 50.59375 49.917969 L 50.59375 51.195312 L 50.734375 51.195312 L 50.734375 50.34375 Z M 50.742188 50.34375 "/>
</g>
</svg>
