<?xml version="1.0" encoding="UTF-8"?>
<svg xmlns="http://www.w3.org/2000/svg" xmlns:xlink="http://www.w3.org/1999/xlink" width="65px" height="65px" viewBox="0 0 65 65" version="1.1">
<defs>
<linearGradient id="linear0" gradientUnits="userSpaceOnUse" x1="19.075" y1="18.782" x2="34.898" y2="34.658" gradientTransform="matrix(1.015625,0,0,1.015625,0,0)">
<stop offset="0" style="stop-color:rgb(21.960784%,49.411765%,72.156863%);stop-opacity:1;"/>
<stop offset="1" style="stop-color:rgb(21.176471%,41.176471%,58.039216%);stop-opacity:1;"/>
</linearGradient>
<linearGradient id="linear1" gradientUnits="userSpaceOnUse" x1="28.809" y1="28.882" x2="45.803" y2="45.163" gradientTransform="matrix(1.015625,0,0,1.015625,0,0)">
<stop offset="0" style="stop-color:rgb(100%,87.843137%,32.156863%);stop-opacity:1;"/>
<stop offset="1" style="stop-color:rgb(100%,76.470588%,19.215686%);stop-opacity:1;"/>
</linearGradient>
</defs>
<g id="surface1">
<path style=" stroke:none;fill-rule:nonzero;fill:url(#linear0);" d="M 32.378906 16.25 C 24.132812 16.25 24.648438 19.832031 24.648438 19.832031 L 24.65625 23.535156 L 32.53125 23.535156 L 32.53125 24.648438 L 21.53125 24.648438 C 21.53125 24.648438 16.25 24.046875 16.25 32.375 C 16.25 40.699219 20.855469 40.402344 20.855469 40.402344 L 23.609375 40.402344 L 23.609375 36.542969 C 23.609375 36.542969 23.457031 31.929688 28.140625 31.929688 L 35.949219 31.929688 C 35.949219 31.929688 40.339844 32.003906 40.339844 27.691406 L 40.339844 20.5625 C 40.339844 20.5625 41.003906 16.25 32.378906 16.25 Z M 28.042969 18.742188 C 28.824219 18.742188 29.457031 19.375 29.457031 20.15625 C 29.457031 20.945312 28.824219 21.578125 28.042969 21.578125 C 27.664062 21.578125 27.300781 21.425781 27.039062 21.164062 C 26.773438 20.898438 26.625 20.535156 26.625 20.15625 C 26.625 19.375 27.257812 18.742188 28.042969 18.742188 Z M 28.042969 18.742188 "/>
<path style=" stroke:none;fill-rule:nonzero;fill:url(#linear1);" d="M 32.621094 48.578125 C 40.867188 48.578125 40.351562 45.003906 40.351562 45.003906 L 40.34375 41.292969 L 32.46875 41.292969 L 32.46875 40.183594 L 43.46875 40.183594 C 43.46875 40.183594 48.75 40.78125 48.75 32.457031 C 48.75 24.132812 44.144531 24.425781 44.144531 24.425781 L 41.390625 24.425781 L 41.390625 28.292969 C 41.390625 28.292969 41.542969 32.898438 36.859375 32.898438 L 29.050781 32.898438 C 29.050781 32.898438 24.660156 32.828125 24.660156 37.136719 L 24.660156 44.269531 C 24.660156 44.269531 23.996094 48.578125 32.621094 48.578125 Z M 36.957031 46.085938 C 36.582031 46.085938 36.21875 45.941406 35.957031 45.671875 C 35.691406 45.40625 35.542969 45.046875 35.542969 44.671875 C 35.542969 43.890625 36.175781 43.257812 36.957031 43.257812 C 37.742188 43.257812 38.375 43.890625 38.375 44.671875 C 38.375 45.453125 37.742188 46.085938 36.957031 46.085938 Z M 36.957031 46.085938 "/>
</g>
</svg>
